<svg width="320" height="320" viewBox="0 0 320 320" fill="none" xmlns="http://www.w3.org/2000/svg">
<path d="M145 257.333L56.9997 169.333C55.6663 168 54.7197 166.555 54.1597 165C53.6086 163.444 53.333 161.778 53.333 160C53.333 158.222 53.6086 156.555 54.1597 155C54.7197 153.444 55.6663 152 56.9997 150.666L145 62.6665C147.444 60.222 150.497 58.942 154.16 58.8265C157.831 58.7198 161 59.9998 163.666 62.6665C166.333 65.1109 167.724 68.1642 167.84 71.8265C167.946 75.4976 166.666 78.6665 164 81.3331L98.6663 146.666H247.666C251.444 146.666 254.613 147.942 257.173 150.493C259.724 153.053 261 156.222 261 160C261 163.778 259.724 166.942 257.173 169.493C254.613 172.053 251.444 173.333 247.666 173.333H98.6663L164 238.666C166.444 241.111 167.724 244.222 167.84 248C167.946 251.778 166.666 254.889 164 257.333C161.555 260 158.444 261.333 154.666 261.333C150.889 261.333 147.666 260 145 257.333V257.333Z" fill="black"/>
</svg>
