<svg width="153" height="153" viewBox="0 0 153 153" fill="none" xmlns="http://www.w3.org/2000/svg">
<g clip-path="url(#clip0_40_4)">
<path d="M51.4352 101.018L126.419 24.5635C128.749 22.1878 131.715 21 135.315 21C138.916 21 141.882 22.1878 144.212 24.5635C146.542 26.9392 147.707 29.9628 147.707 33.6344C147.707 37.3059 146.542 40.3295 144.212 42.7052L60.3315 128.23C57.7897 130.822 54.8243 132.118 51.4352 132.118C48.0461 132.118 45.0806 130.822 42.5388 128.23L9.49501 94.5385C7.165 92.1628 6 89.1392 6 85.4677C6 81.7962 7.165 78.7726 9.49501 76.3969C11.825 74.0212 14.7905 72.8333 18.3914 72.8333C21.9923 72.8333 24.9578 74.0212 27.2878 76.3969L51.4352 101.018Z" fill="white"/>
</g>
<defs>
<clipPath id="clip0_40_4">
<rect width="153" height="153" fill="white"/>
</clipPath>
</defs>
</svg>
