<svg width="320" height="320" viewBox="0 0 320 320" fill="none" xmlns="http://www.w3.org/2000/svg">
<path d="M220.952 53.3333C257.737 74.3162 281.904 114.621 281.904 160C281.904 184.11 274.755 207.68 261.36 227.727C247.965 247.774 228.926 263.399 206.65 272.625C184.375 281.852 159.864 284.266 136.217 279.562C112.57 274.859 90.8485 263.248 73.7999 246.2C56.7512 229.151 45.1409 207.43 40.4371 183.782C35.7334 160.135 38.1475 135.624 47.3742 113.349C56.6009 91.0739 72.2257 72.0349 92.2729 58.6399C112.32 45.2448 135.889 38.0952 160 38.0952" stroke="black" stroke-width="15" stroke-linecap="round" stroke-linejoin="round"/>
<path d="M220.952 114.286V53.3335H281.905" stroke="black" stroke-width="15" stroke-linecap="round" stroke-linejoin="round"/>
</svg>
