<svg width="34" height="33" viewBox="0 0 34 33" fill="none" xmlns="http://www.w3.org/2000/svg">
<g clip-path="url(#clip0_203_896)">
<path fill-rule="evenodd" clip-rule="evenodd" d="M17.25 0.3125C8.13788 0.3125 0.75 7.4765 0.75 16.3125C0.75 25.1485 8.13788 32.3125 17.25 32.3125C26.3621 32.3125 33.75 25.1485 33.75 16.3125C33.75 7.4765 26.3621 0.3125 17.25 0.3125ZM24.8978 11.1938C24.6502 13.7232 23.575 19.8632 23.0291 22.6965C22.7981 23.8965 22.3416 24.2978 21.9016 24.3365C20.9433 24.4218 20.2159 23.7218 19.2878 23.1325C17.8358 22.2098 17.0149 21.6352 15.6055 20.7338C13.9761 19.6925 15.0321 19.1205 15.9603 18.1858C16.2036 17.9405 20.4249 14.2165 20.5074 13.8792C20.517 13.8365 20.528 13.6792 20.4304 13.5965C20.3328 13.5138 20.1911 13.5418 20.0894 13.5645C19.9436 13.5965 17.624 15.0832 13.1291 18.0245C12.4705 18.4632 11.8738 18.6765 11.3389 18.6658C10.7504 18.6538 9.61738 18.3432 8.7745 18.0765C7.74188 17.7512 6.91963 17.5778 6.99113 17.0258C7.02825 16.7378 7.43663 16.4432 8.21763 16.1418C13.0274 14.1098 16.2352 12.7698 17.8399 12.1218C22.4228 10.2738 23.3743 9.9525 23.9958 9.94183C24.774 9.93117 24.961 10.5538 24.8978 11.1938Z" fill="white"/>
</g>
<defs>
<clipPath id="clip0_203_896">
<path d="M0.75 16.8125C0.75 7.6998 8.1373 0.3125 17.25 0.3125C26.3627 0.3125 33.75 7.6998 33.75 16.8125V32.3125H0.75V16.8125Z" fill="white"/>
</clipPath>
</defs>
</svg>
