<svg width="33" height="33" viewBox="0 0 33 33" fill="none" xmlns="http://www.w3.org/2000/svg">
<g clip-path="url(#clip0_203_899)">
<path fill-rule="evenodd" clip-rule="evenodd" d="M28.2715 4.96317C25.1683 1.96583 21.0428 0.313833 16.6479 0.3125C7.59138 0.3125 0.220432 7.4245 0.216287 16.1685C0.214905 18.9632 0.972033 21.6912 2.4103 24.0965L0.078125 32.3125L8.78786 30.1072C11.1877 31.3712 13.8902 32.0365 16.6396 32.0378H16.6465C25.7017 32.0378 33.074 24.9245 33.0781 16.1805C33.0809 11.9445 31.3732 7.95917 28.2715 4.96317ZM16.6479 29.3592H16.6424C14.1914 29.3592 11.7887 28.7232 9.69144 27.5218L9.19267 27.2365L4.02403 28.5445L5.40427 23.6805L5.07959 23.1818C3.71179 21.0832 2.99058 18.6578 2.99196 16.1685C2.99473 8.90183 9.12221 2.98983 16.6548 2.98983C20.3023 2.98983 23.7315 4.36317 26.3096 6.85383C28.8877 9.34583 30.3066 12.6565 30.3052 16.1778C30.3011 23.4472 24.175 29.3592 16.6479 29.3592ZM24.139 19.4885C23.7287 19.2898 21.7102 18.3312 21.333 18.1992C20.9572 18.0672 20.6836 18.0005 20.4087 18.3965C20.1337 18.7925 19.349 19.6858 19.1086 19.9512C18.8695 20.2152 18.6291 20.2485 18.2188 20.0498C17.8085 19.8512 16.4849 19.4338 14.9167 18.0832C13.6968 17.0325 12.8719 15.7352 12.6329 15.3378C12.3939 14.9405 12.608 14.7272 12.8125 14.5298C12.9977 14.3525 13.2229 14.0672 13.4287 13.8352C13.636 13.6058 13.7037 13.4405 13.8418 13.1752C13.9786 12.9112 13.9109 12.6792 13.8073 12.4805C13.7037 12.2832 12.883 10.3325 12.5417 9.53917C12.2087 8.76583 11.8703 8.87117 11.6174 8.85917C11.3784 8.84717 11.1048 8.84583 10.8299 8.84583C10.5563 8.84583 10.1115 8.9445 9.73565 9.34183C9.35985 9.73917 8.29877 10.6978 8.29877 12.6472C8.29877 14.5978 9.77019 16.4818 9.97467 16.7458C10.1791 17.0098 12.8692 21.0125 16.9878 22.7285C17.9673 23.1365 18.7328 23.3805 19.3282 23.5632C20.312 23.8645 21.2072 23.8218 21.9146 23.7205C22.7035 23.6072 24.3435 22.7618 24.6862 21.8365C25.0288 20.9112 25.0288 20.1165 24.9252 19.9525C24.8229 19.7858 24.5494 19.6872 24.139 19.4885Z" fill="white"/>
</g>
<defs>
<clipPath id="clip0_203_899">
<path d="M0 16.8125C0 7.6998 7.3873 0.3125 16.5 0.3125C25.6127 0.3125 33 7.6998 33 16.8125V32.3125H0V16.8125Z" fill="white"/>
</clipPath>
</defs>
</svg>
